<svg class="lds-gear" width="24px"  height="24px"  xmlns="http://www.w3.org/2000/svg" xmlns:xlink="http://www.w3.org/1999/xlink" viewBox="0 0 100 100" preserveAspectRatio="xMidYMid" style="background: none;"><g transform="translate(50 50)">
<g transform="rotate(316)">
<animateTransform attributeName="transform" type="rotate" values="0;360" keyTimes="0;1" dur="3s" repeatCount="indefinite"></animateTransform><path d="M35.09985754956849 -8 L47.09985754956849 -8 L47.09985754956849 8 L35.09985754956849 8 A36 36 0 0 1 33.098663276080494 14.159042670203402 L33.098663276080494 14.159042670203402 L42.80686720857986 21.21246569771308 L33.402303171900286 34.156737607712245 L23.69409923940092 27.103314580202564 A36 36 0 0 1 18.45490461331769 30.909812288549173 L18.45490461331769 30.909812288549173 L22.16310854581706 42.32249048409101 L6.946204285094602 47.26676239409018 L3.2380003525952343 35.854084198548335 A36 36 0 0 1 -3.23800035259523 35.854084198548335 L-3.23800035259523 35.854084198548335 L-6.9462042850945975 47.26676239409018 L-22.163108545817053 42.32249048409102 L-18.454904613317687 30.909812288549173 A36 36 0 0 1 -23.694099239400916 27.103314580202564 L-23.694099239400916 27.103314580202564 L-33.402303171900286 34.156737607712245 L-42.80686720857985 21.212465697713085 L-33.09866327608049 14.159042670203405 A36 36 0 0 1 -35.09985754956849 8.000000000000005 L-35.09985754956849 8.000000000000005 L-47.09985754956849 8.000000000000007 L-47.09985754956849 -7.999999999999995 L-35.09985754956849 -7.9999999999999964 A36 36 0 0 1 -33.098663276080494 -14.159042670203398 L-33.098663276080494 -14.159042670203398 L-42.80686720857987 -21.212465697713075 L-33.4023031719003 -34.15673760771223 L-23.694099239400927 -27.103314580202557 A36 36 0 0 1 -18.454904613317694 -30.90981228854917 L-18.454904613317694 -30.90981228854917 L-22.163108545817067 -42.32249048409101 L-6.946204285094609 -47.26676239409018 L-3.2380003525952383 -35.854084198548335 A36 36 0 0 1 3.2380003525952255 -35.854084198548335 L3.2380003525952255 -35.854084198548335 L6.946204285094592 -47.26676239409018 L22.16310854581705 -42.32249048409102 L18.454904613317684 -30.909812288549176 A36 36 0 0 1 23.694099239400913 -27.103314580202568 L23.694099239400913 -27.103314580202568 L33.40230317190028 -34.156737607712245 L42.80686720857985 -21.212465697713085 L33.09866327608049 -14.159042670203409 A36 36 0 0 1 35.09985754956848 -8.000000000000009 M0 -16A16 16 0 1 0 0 16 A16 16 0 1 0 0 -16" fill="#28292f"></path></g></g></svg>